# xmcd
#
# Track frame offsets: 
#        150
#        12820
#        25502
#        37947
#        50330
#        61025
#        72547
#        83979
#        94297
#        107160
#        127404
#        140190
#        154335
#        166620
#        177910
#        190185
#        203592
#        214597
#        224900
#        236540
#        247700
#        258027
#        273762
#        286732
#        297595
#        305465
#
# Disc length: 4222 seconds
#
# Revision: 3
# Processed by: cddbd v1.5.2PL0 Copyright (c) Steve Scherf et al.
# Submitted via: ExactAudioCopy v1.0b1
#
DISCID=76107c1a
DTITLE=Jimmy Rogers - The Complete Chess Recordings [CD2]
DYEAR=1997
DGENRE=Blues
TTITLE0=Walking By Myself (mono)
TTITLE1=I Can't Believe (mono)
TTITLE2=One Kiss (mono)
TTITLE3=What Have I Done (mono)
TTITLE4=My Baby Don't Love Me No More (mono)
TTITLE5=Trace Of You (mono)
TTITLE6=Don't You Know My Baby (mono)
TTITLE7=Don't Turn Me Down (mono)
TTITLE8=Looka Here (mono)
TTITLE9=This Has Never Been (mono)
TTITLE10=Rock This House (mono)
TTITLE11=My Last Meal (mono)
TTITLE12=You Don't Know (mono)
TTITLE13=Can't Keep From Worrying (mono)
TTITLE14=Ludella (alt) (mono)
TTITLE15=Act Like You Love Me (alt) (mono)
TTITLE16=What Have I Done (alt) (mono)
TTITLE17=My Baby Don't Love Me No More (alt) (mono)
TTITLE18=Trace Of You (alt) (mono)
TTITLE19=Don't You Know My Baby (alt) (mono)
TTITLE20=Don't Turn Me Down (alt) (mono)
TTITLE21=This Has Never Been (alt) (mono)
TTITLE22=Rock This House (alt) (mono)
TTITLE23=My Last Meal (alt) (mono)
TTITLE24=You Don't Know (alt) (mono)
TTITLE25=Can't Keep From Worrying (alt) (mono)
EXTD=
EXTT0=
EXTT1=
EXTT2=
EXTT3=
EXTT4=
EXTT5=
EXTT6=
EXTT7=
EXTT8=
EXTT9=
EXTT10=
EXTT11=
EXTT12=
EXTT13=
EXTT14=
EXTT15=
EXTT16=
EXTT17=
EXTT18=
EXTT19=
EXTT20=
EXTT21=
EXTT22=
EXTT23=
EXTT24=
EXTT25=
PLAYORDER=
